<?xml version="1.0" encoding="UTF-8" standalone="no"?>
<svg
   xmlns:dc="http://purl.org/dc/elements/1.1/"
   xmlns:cc="http://creativecommons.org/ns#"
   xmlns:rdf="http://www.w3.org/1999/02/22-rdf-syntax-ns#"
   xmlns:svg="http://www.w3.org/2000/svg"
   xmlns="http://www.w3.org/2000/svg"
   xmlns:sodipodi="http://sodipodi.sourceforge.net/DTD/sodipodi-0.dtd"
   xmlns:inkscape="http://www.inkscape.org/namespaces/inkscape"
   inkscape:version="1.0 (4035a4fb49, 2020-05-01)"
   sodipodi:docname="line-bus.svg"
   id="svg40"
   xml:space="preserve"
   enable-background="new 0 0 70 30"
   viewBox="0 0 27 24"
   height="24"
   width="27"
   y="0px"
   x="0px"
   version="1.1"><metadata
   id="metadata46"><rdf:RDF><cc:Work
       rdf:about=""><dc:format>image/svg+xml</dc:format><dc:type
         rdf:resource="http://purl.org/dc/dcmitype/StillImage" /><dc:title></dc:title></cc:Work></rdf:RDF></metadata><defs
   id="defs44" /><sodipodi:namedview
   inkscape:current-layer="svg40"
   inkscape:window-maximized="1"
   inkscape:window-y="-11"
   inkscape:window-x="-11"
   inkscape:cy="12"
   inkscape:cx="13.5"
   inkscape:zoom="50"
   inkscape:guide-bbox="true"
   showguides="true"
   inkscape:pagecheckerboard="true"
   showgrid="false"
   id="namedview42"
   inkscape:window-height="2080"
   inkscape:window-width="3840"
   inkscape:pageshadow="2"
   inkscape:pageopacity="0"
   guidetolerance="10"
   gridtolerance="10"
   objecttolerance="10"
   borderopacity="1"
   bordercolor="#666666"
   pagecolor="#ffffff"><sodipodi:guide
     id="guide48"
     orientation="1,0"
     position="4,27.14" /><sodipodi:guide
     id="guide52"
     orientation="0,-1"
     position="7.4,3.56" /></sodipodi:namedview>
<g
   transform="translate(-31.957133,-3.1307443)"
   id="ikona">
	<circle
   id="circle29"
   r="2.046"
   cy="21.5"
   cx="45"
   fill="#ffffff" />
	<path
   id="path31"
   d="M 54.761,19 53.683,10 H 36 v 2 h 4 v 5 h -4 v 5 h 6.097 c -0.028,-0.163 -0.051,-0.329 -0.051,-0.5 0,-1.629 1.325,-2.954 2.954,-2.954 1.629,0 2.954,1.325 2.954,2.954 0,0.171 -0.022,0.337 -0.051,0.5 H 49 V 12 h 4 V 22 H 53.293 55 V 19 Z M 48,17 h -7 v -5 h 7 z"
   fill="#ffffff" />
</g>
<g
   display="none"
   id="cisla">
	
		<text
   id="text34"
   font-size="18.233px"
   font-family="Campton-Bold"
   fill="#ffffff"
   display="inline"
   transform="translate(9.584,22.2363)">29</text>
</g>
<g
   transform="translate(-31.957133,-3.1307443)"
   id="Vrstva_1">
	<rect
   id="rect37"
   height="1"
   width="6"
   fill="#ffffff"
   y="21"
   x="48" />
</g>
</svg>
