<?xml version="1.0" encoding="UTF-8" standalone="no"?>
<svg
   xmlns:dc="http://purl.org/dc/elements/1.1/"
   xmlns:cc="http://creativecommons.org/ns#"
   xmlns:rdf="http://www.w3.org/1999/02/22-rdf-syntax-ns#"
   xmlns:svg="http://www.w3.org/2000/svg"
   xmlns="http://www.w3.org/2000/svg"
   xmlns:sodipodi="http://sodipodi.sourceforge.net/DTD/sodipodi-0.dtd"
   xmlns:inkscape="http://www.inkscape.org/namespaces/inkscape"
   inkscape:version="1.0 (4035a4fb49, 2020-05-01)"
   sodipodi:docname="line-tram.svg"
   id="svg9"
   xml:space="preserve"
   enable-background="new 0 0 70 30"
   viewBox="0 0 27 24"
   height="24"
   width="27"
   y="0px"
   x="0px"
   version="1.1"><metadata
   id="metadata15"><rdf:RDF><cc:Work
       rdf:about=""><dc:format>image/svg+xml</dc:format><dc:type
         rdf:resource="http://purl.org/dc/dcmitype/StillImage" /><dc:title></dc:title></cc:Work></rdf:RDF></metadata><defs
   id="defs13" /><sodipodi:namedview
   inkscape:current-layer="svg9"
   inkscape:window-maximized="1"
   inkscape:window-y="-11"
   inkscape:window-x="-11"
   inkscape:cy="12"
   inkscape:cx="13.5"
   inkscape:zoom="50"
   inkscape:guide-bbox="true"
   showguides="true"
   inkscape:pagecheckerboard="true"
   showgrid="false"
   id="namedview11"
   inkscape:window-height="2080"
   inkscape:window-width="3840"
   inkscape:pageshadow="2"
   inkscape:pageopacity="0"
   guidetolerance="10"
   gridtolerance="10"
   objecttolerance="10"
   borderopacity="1"
   bordercolor="#666666"
   pagecolor="#ffffff"><sodipodi:guide
     id="guide17"
     orientation="0,-1"
     position="5.1,3.58" /><sodipodi:guide
     id="guide19"
     orientation="1,0"
     position="4,28.64" /></sodipodi:namedview>
<g
   transform="translate(-30,-3.56)"
   id="ikona">
	<path
   id="path2"
   d="m 52.676,10 h -6.865 l 2.897,-2.71 c 0.16,-0.15 0.168,-0.4 0.019,-0.56 -0.15,-0.159 -0.4,-0.168 -0.56,-0.019 L 44.65,10 h -1.3 L 39.833,6.71 c -0.159,-0.148 -0.409,-0.14 -0.56,0.019 -0.149,0.16 -0.142,0.41 0.019,0.56 L 42.189,10 H 34 v 3 h 6 v 5 h -6 v 4 h 6 c 0.256,1.035 1.275,2 2.5,2 1.223,0 2.24,-0.965 2.5,-2 v -9 h 3 v 9 h -3 c 0.256,1.035 1.275,2 2.5,2 1.223,0 2.24,-0.965 2.5,-2 h 4.169 L 55,19.878 Z M 44,22 h -3 v -9 h 3 z m 5,-4 v -5 h 2.206 l 1.063,5 z"
   fill="#ffffff" />
</g>
<g
   display="none"
   id="cisla">
	
		<text
   id="text5"
   font-size="18.233px"
   font-family="Campton-Bold"
   fill="#ffffff"
   display="inline"
   transform="translate(15.5728,22.2363)">1</text>
</g>
<g
   id="Vrstva_1">
</g>
</svg>
