<svg xmlns="http://www.w3.org/2000/svg" xmlns:xlink="http://www.w3.org/1999/xlink" version="1.1" style="" xml:space="preserve" width="512" height="512"><rect id="backgroundrect" width="100%" height="100%" x="0" y="0" fill="none" stroke="none"/>
















<g class="currentLayer" style=""><title>Layer 1</title><g id="svg_1">
	<g id="svg_2">
		<g id="svg_3">
			<path d="M136.533,358.4 c-14.507,0 -25.6,11.093 -25.6,25.6 c0,14.507 11.093,25.6 25.6,25.6 c14.507,0 25.6,-11.093 25.6,-25.6 C162.133,369.493 151.04,358.4 136.533,358.4 zM136.533,392.533 c-5.12,0 -8.533,-3.4130000000000003 -8.533,-8.533 s3.4130000000000003,-8.533 8.533,-8.533 s8.533,3.4130000000000003 8.533,8.533 S141.653,392.533 136.533,392.533 z" id="svg_4"/>
			<path d="M375.467,358.4 c-14.507,0 -25.6,11.093 -25.6,25.6 c0,14.507 11.093,25.6 25.6,25.6 c14.507,0 25.6,-11.093 25.6,-25.6 C401.067,369.493 389.973,358.4 375.467,358.4 zM375.467,392.533 c-5.12,0 -8.533,-3.4130000000000003 -8.533,-8.533 s3.4130000000000003,-8.533 8.533,-8.533 S384,378.88 384,384 S380.587,392.533 375.467,392.533 z" id="svg_5"/>
			<path d="M375.467,128 H136.533 c-14.507,0 -25.6,11.093 -25.6,25.6 v153.6 c0,14.507 11.093,25.6 25.6,25.6 h238.933 c14.507,0 25.6,-11.093 25.6,-25.6 V153.6 C401.067,139.093 389.973,128 375.467,128 zM384,307.2 c0,5.12 -3.4130000000000003,8.533 -8.533,8.533 h-90.453 l18.166,-18.166 c1.239,-0.6890000000000002 2.232,-1.681 2.92,-2.92 l41.206,-41.206 c3.4130000000000003,-3.4130000000000003 3.4130000000000003,-8.533 0,-11.947 s-8.533,-3.4130000000000003 -11.947,0 l-28.16,28.16 V256 c0,-5.12 -3.4130000000000003,-8.533 -8.533,-8.533 s-8.533,3.4130000000000003 -8.533,8.533 v30.72 l-29.013,29.013 h-78.507 l18.166,-18.166 c1.239,-0.6890000000000002 2.232,-1.681 2.92,-2.92 l41.206,-41.206 c3.4130000000000003,-3.4130000000000003 3.4130000000000003,-8.533 0,-11.947 s-8.533,-3.4130000000000003 -11.947,0 l-28.16,28.16 V256 c0,-5.12 -3.4130000000000003,-8.533 -8.533,-8.533 s-8.533,3.4130000000000003 -8.533,8.533 v30.72 l-29.013,29.013 h-22.187 c-5.12,0 -8.533,-3.4130000000000003 -8.533,-8.533 V153.6 c0,-5.12 3.4130000000000003,-8.533 8.533,-8.533 h238.933 c5.12,0 8.533,3.4130000000000003 8.533,8.533 V307.2 z" id="svg_6"/>
			<path d="M496.64,145.92 h-19.627 c-8.533,0 -15.36,6.827 -15.36,15.36 v17.92 h-17.92 v-59.733 c0,-18.773 -15.36,-34.133 -34.133,-34.133 h-79.644 L314.88,40.107 c-0.8530000000000001,-3.4130000000000003 -4.267,-5.973 -7.68,-5.973 h-5.12 l19.627,-19.627 c3.4130000000000003,-3.4130000000000003 3.4130000000000003,-8.533 0,-11.947 c-3.4130000000000003,-3.4130000000000003 -8.533,-3.4130000000000003 -11.947,0 l-31.573,31.573 H250.88 l19.627,-19.627 c3.4130000000000003,-3.4130000000000003 3.4130000000000003,-8.533 0,-11.947 s-8.533,-3.4130000000000003 -11.947,0 l-31.573,31.573 h-13.653 c-3.4130000000000003,0 -6.827,2.56 -7.68,5.973 l-15.076,45.227 H102.4 c-18.773,0 -34.133,15.36 -34.133,34.133 V179.2 h-17.92 v-17.92 c0,-8.533 -6.827,-15.36 -15.36,-15.36 H15.36 C6.827,145.92 0,152.747 0,161.28 v53.76 c0,8.533 6.827,15.36 15.36,15.36 h20.48 c8.533,0 15.36,-6.827 14.507,-15.36 v-18.773 h17.92 v221.867 c0,15.83 10.921,29.232 25.6,33.046 v26.688 C93.867,496.64 109.227,512 128,512 h34.133 c18.773,0 34.133,-15.36 34.133,-34.133 v-25.6 h119.467 v25.6 c0,18.773 15.36,34.133 34.133,34.133 H384 c18.773,0 34.133,-15.36 34.133,-34.133 v-26.688 c14.679,-3.814 25.6,-17.216 25.6,-33.046 V196.267 h17.92 v18.773 c0,8.533 6.827,15.36 15.36,15.36 h19.627 c8.533,0 15.36,-6.827 15.36,-15.36 v-53.76 C512,152.747 505.173,145.92 496.64,145.92 zM34.133,213.333 H17.067 v-51.2 h17.067 V213.333 zM219.307,51.2 h81.92 l11.093,34.133 H208.213 L219.307,51.2 zM179.2,477.867 c0,9.387 -7.68,17.067 -17.067,17.067 H128 c-9.387,0 -17.067,-7.68 -17.067,-17.067 v-25.6 H179.2 V477.867 zM401.067,477.867 c0,9.387 -7.68,17.067 -17.067,17.067 h-34.133 c-9.387,0 -17.067,-7.68 -17.067,-17.067 v-25.6 h68.267 V477.867 zM426.667,418.133 c0,9.387 -7.68,17.067 -17.067,17.067 h-93.867 H196.267 H102.4 c-9.387,0 -17.067,-7.68 -17.067,-17.067 V119.467 c0,-9.387 7.68,-17.067 17.067,-17.067 h93.867 h128 H409.6 c9.387,0 17.067,7.68 17.067,17.067 V418.133 zM494.933,213.333 h-17.067 v-51.2 h17.067 V213.333 z" id="svg_7"/>
			<path d="M290.133,375.467 c5.12,0 8.533,-3.4130000000000003 8.533,-8.533 s-3.4130000000000003,-8.533 -8.533,-8.533 h-68.267 c-5.12,0 -8.533,3.4130000000000003 -8.533,8.533 s3.4130000000000003,8.533 8.533,8.533 H290.133 z" id="svg_8"/>
			<path d="M315.733,392.533 H196.267 c-5.12,0 -8.533,3.4130000000000003 -8.533,8.533 c0,5.12 3.4130000000000003,8.533 8.533,8.533 h119.467 c5.12,0 8.533,-3.4130000000000003 8.533,-8.533 C324.267,395.947 320.853,392.533 315.733,392.533 z" id="svg_9"/>
		</g>
	</g>
</g><g id="svg_10">
</g><g id="svg_11">
</g><g id="svg_12">
</g><g id="svg_13">
</g><g id="svg_14">
</g><g id="svg_15">
</g><g id="svg_16">
</g><g id="svg_17">
</g><g id="svg_18">
</g><g id="svg_19">
</g><g id="svg_20">
</g><g id="svg_21">
</g><g id="svg_22">
</g><g id="svg_23">
</g><g id="svg_24">
</g></g></svg>