<svg height="682pt" viewBox="-96 -21 682 682.66669" width="682pt" xmlns="http://www.w3.org/2000/svg"><path d="m360.332031 81.25h-30v-81.25h-50v81.25h-76.25v-81.25h-50v81.25h-33.75c-68.925781 0-125 56.074219-125 125v306.25c0 27.699219 15.109375 51.917969 37.5 64.914062v12.585938c0 27.570312 22.433594 50 50 50 27.570313 0 50-22.429688 50-50v-2.5h212.5v2.5c0 27.570312 22.433594 50 50 50 27.570313 0 50-22.429688 50-50v-11.195312c23.765625-12.597657 40-37.585938 40-66.304688v-306.25c0-68.925781-56.074219-125-125-125zm50 456.25h-340c-13.78125 0-25-11.214844-25-25v-143.675781l33.972657 23.824219c12.679687 8.898437 27.570312 13.601562 43.070312 13.601562h244.832031c17.535157 0 34.601563-6.1875 48.0625-17.421875l20.0625-16.75v140.421875c0 13.785156-11.214843 25-25 25zm-275-406.25h210v25c0 13.785156-11.214843 25-25 25h-160c-13.78125 0-25-11.214844-25-25zm-50 8.695312v16.304688c0 41.359375 33.644531 75 75 75h160c41.359375 0 75-33.640625 75-75v-16.304688c23.765625 12.597657 40 37.585938 40 66.304688v100.699219l-52.101562 43.496093c-4.488281 3.742188-10.175781 5.804688-16.023438 5.804688h-244.832031c-5.167969 0-10.132812-1.566406-14.359375-4.535156l-62.683594-43.972656v-101.492188c0-28.71875 16.238281-53.707031 40-66.304688zm47.5 335.054688c0 13.808594-11.191406 25-25 25-13.808593 0-25-11.191406-25-25s11.191407-25 25-25c13.808594 0 25 11.191406 25 25zm263.75 0c0 13.808594-11.191406 25-25 25-13.808593 0-25-11.191406-25-25s11.191407-25 25-25c13.808594 0 25 11.191406 25 25zm0 0"/></svg>